<svg xmlns="http://www.w3.org/2000/svg" viewBox="0 0 130 130" width="130" height="130"><rect x="0" y="0" width="130" height="130" fill="#0c1838" stroke="#21345f" stroke-width="1.5"/><line x1="33.0" y1="22.0" x2="33.0" y2="44.0" stroke="#2f8fe8" stroke-width="2.2" stroke-linecap="round"/><line x1="33.0" y1="44.0" x2="33.0" y2="66.0" stroke="#2f8fe8" stroke-width="2.2" stroke-linecap="round"/><line x1="33.0" y1="66.0" x2="33.0" y2="87.0" stroke="#2f8fe8" stroke-width="2.2" stroke-linecap="round"/><line x1="33.0" y1="87.0" x2="33.0" y2="108.0" stroke="#2f8fe8" stroke-width="2.2" stroke-linecap="round"/><line x1="33.0" y1="22.0" x2="55.0" y2="23.0" stroke="#2f8fe8" stroke-width="2.2" stroke-linecap="round"/><line x1="55.0" y1="23.0" x2="76.0" y2="24.0" stroke="#2f8fe8" stroke-width="2.2" stroke-linecap="round"/><line x1="76.0" y1="24.0" x2="97.0" y2="27.0" stroke="#2f8fe8" stroke-width="2.2" stroke-linecap="round"/><line x1="33.0" y1="66.0" x2="52.0" y2="65.0" stroke="#2f8fe8" stroke-width="2.2" stroke-linecap="round"/><line x1="52.0" y1="65.0" x2="70.0" y2="64.0" stroke="#2f8fe8" stroke-width="2.2" stroke-linecap="round"/><line x1="70.0" y1="64.0" x2="86.0" y2="63.0" stroke="#2f8fe8" stroke-width="2.2" stroke-linecap="round"/><line x1="33.0" y1="44.0" x2="55.0" y2="23.0" stroke="#2f8fe8" stroke-width="2.2" stroke-linecap="round"/><line x1="33.0" y1="87.0" x2="52.0" y2="65.0" stroke="#2f8fe8" stroke-width="2.2" stroke-linecap="round"/><rect x="29.5" y="18.5" width="7.0" height="7.0" rx="1.6" fill="#bfe6ff"/><circle cx="33.0" cy="44.0" r="3.3" fill="#7fd3f5"/><circle cx="33.0" cy="66.0" r="3.3" fill="#7fd3f5"/><circle cx="33.0" cy="87.0" r="3.1" fill="#cf7ff2"/><rect x="29.5" y="104.5" width="7.0" height="7.0" rx="1.6" fill="#bfe6ff"/><circle cx="55.0" cy="23.0" r="3.3" fill="#7fd3f5"/><circle cx="76.0" cy="24.0" r="3.1" fill="#cf7ff2"/><rect x="93.5" y="23.5" width="7.0" height="7.0" rx="1.6" fill="#bfe6ff"/><circle cx="52.0" cy="65.0" r="3.3" fill="#7fd3f5"/><circle cx="70.0" cy="64.0" r="3.1" fill="#cf7ff2"/><rect x="82.5" y="59.5" width="7.0" height="7.0" rx="1.6" fill="#bfe6ff"/></svg>